<?xml version="1.0" encoding="utf-8"?>
<!-- Generator: Adobe Illustrator 19.1.0, SVG Export Plug-In . SVG Version: 6.00 Build 0)  -->
<svg version="1.1" id="logo" xmlns="http://www.w3.org/2000/svg" xmlns:xlink="http://www.w3.org/1999/xlink" x="0px" y="0px"
	 viewBox="0 0 1020.7 182.5" enable-background="new 0 0 1020.7 182.5" xml:space="preserve">
<g>
	<g>
		<path fill="#00A2D3" d="M593.5,118.9c1.9-2.4,3.3-5.2,4.6-8.4c1.3-3.2,2.6-7.1,3.7-12.1l17.8-78.1c1.3-5.4,2-9.5,2.2-12.3
			c0-2.6-0.4-5.4-1.1-8.2H673c-1.9,2.4-3.5,5.2-4.8,8.4c-1.3,3.2-2.4,7.1-3.5,12.1l-17.8,78.1c-1.3,5.4-1.7,9.5-1.9,12.1
			c0,2.8,0.4,5.6,0.9,8.4H593.5z M714.9,31.6l-0.7,9.1c2-2.8,4.5-5,6.3-6.7c2-1.7,4.6-2.4,7.4-2.4H763c10,0,16.7,2.8,20.1,8.2
			c1.9,3.3,2.8,7.4,2.8,12.3c0,3.3-0.4,7.2-1.1,11.3l-8.2,35.5c-1.1,4.6-1.7,8.4-1.7,11.7c0,2.4,0.7,5.2,1.9,8.4h-53
			c2.2-2.8,4.1-5.6,5.6-8.2c1.1-2.4,2.4-6.5,3.7-11.9l9.8-42.9c0.2-1.3,0.4-2.4,0.4-3.2c0-1.1-0.2-2-0.4-2.6
			c-1.1-0.9-2.8-1.5-5.6-1.5h-15.8c-2.8,0-4.8,0.6-5.8,1.5c-1.5,1.1-2.6,3-3.2,5.8L703,98.9c-1.1,4.6-1.7,8.2-1.7,11.7
			c0,2.4,0.7,5.2,1.9,8.4h-53c2.2-2.8,4.1-5.6,5.6-8.2c1.1-2.4,2.4-6.5,3.7-11.9l10.8-47.2c1.3-5.6,1.9-9.5,1.9-11.9
			c-0.2-2.2-0.9-5-2-8.2H714.9z M830.8,92.9c-0.2,0.9-0.4,2-0.4,2.8c0,4.1,2.8,6.1,8.4,6.1h21c6.9,0,11.7-0.4,14.7-0.9
			c2.4-0.6,5.6-1.7,9.3-3.3l-7.8,21.4h-67.3c-9.3,0-15.8-2.4-19-7.2c-2.2-3-3.2-6.5-3.2-11c0-2.8,0.4-5.8,1.1-8.9l7.6-33.1
			c2-8.5,5.8-15.2,11-20.1c5.2-4.6,12.8-7.1,22.5-7.1H896l-0.9,21.7c-2.4-3.2-8.7-4.6-19.3-4.6h-24.9c-6.5,0-10.6,3-11.9,8.9
			L830.8,92.9z M895.7,96.4h31.2l-8.1,22.5h-31.3L895.7,96.4z"/>
		<path fill="#0054A6" d="M230.3,0l-2,24.5c-2.2-1.7-4.1-2.8-6.3-3.7c-2.2-0.7-5.2-1.1-9.1-1.1H98.6l-18,78.8
			c-1.3,5.4-1.7,9.5-1.9,12.1c0,3.5,0.4,5.9,0.9,8.4H27.4c1.9-2.4,3.3-5.2,4.6-8.4c1.3-3.2,2.6-7.1,3.9-12.1l18-78.8H17.8
			c-4.1,0-7.1,0.4-9.3,0.9c-2.2,0.7-4.8,2-8.5,3.9L9.3,0H230.3z M192.5,31.6c10.6,0,17.5,2.4,20.8,7.4c1.9,2.8,2.6,6.5,2.6,11.3
			c0,4.1-0.6,8.7-1.7,14.1l-8.9,38.1c-0.7,3.5-1.1,6.1-1.1,9.7c0,2.4,0.6,4.6,1.7,6.7h-43.3v-9.7c-2.2,3.9-4.6,6.5-7.4,7.8
			c-2.6,1.3-6.9,1.9-12.8,1.9h-31c-9.3,0-15.6-2-18.2-6.1c-1.5-2-2.2-5.2-2.2-9.3c0-3.2,0.6-6.7,1.5-11l1.5-6.3
			c2-9.5,5.6-16.2,10-20.3c4.3-4.1,11.3-6.1,21-6.1h39.4c3,0,5.2-0.4,6.3-1.1c1.1-0.7,1.9-2.2,2.4-4.5c0.2-0.9,0.4-1.5,0.4-2.2
			c0-0.9-0.2-1.7-0.6-2.2c-0.7-0.7-2.8-1.1-5.9-1.1h-43.1c-6.7,0-12.6,1.3-18,3.7l7.6-20.8H192.5z M148.5,76.9
			c-3.5,0-5.8,0.6-7.4,1.5c-1.5,0.9-2.6,3-3.3,5.9l-2.4,10c-0.2,1.3-0.4,2-0.4,3c0,1.5,0.4,2.4,1.1,3c1.1,0.9,3.3,1.5,6.9,1.5h10
			c4.3,0,7.1-0.7,8.4-2c1.1-1.3,2.4-4.8,3.5-10.4l3-12.5H148.5z M272.4,31.6l0.4,9.3c1.9-2.4,3.5-4.6,5.6-6.5c1.9-1.9,4.6-2.8,8-2.8
			H323c9.3,0,15.8,2.4,19.1,7.1c2,3,3,6.7,3,11.2c0,2.8-0.6,5.6-0.9,8.9l-7.6,33.1c-2,8.5-5.8,15.2-11,19.9
			c-5.4,4.8-13,7.2-22.5,7.2h-34c-3.5,0-5.8-0.9-7.1-2.6c-1.3-1.7-2-3.5-2.2-5.9l-6.3,25.3c-0.9,4.1-1.1,7.2-1.1,9.7
			c0.2,2.4,0.2,4.6,1.1,6.7h-47l23.8-104.1c0.9-4.1,1.3-7.2,1.3-9.7c0-2.4-0.4-4.6-1.3-6.7H272.4z M262.7,95.2
			c-0.2,0.9-0.2,1.7-0.2,2.4c0,2.8,1.5,4.3,4.8,4.3h17.3c4.1,0,6.5-2.2,7.4-6.7l9.3-39.8c0.2-0.9,0.4-1.7,0.4-2.2
			c0-3.2-1.7-4.5-5-4.5h-17.3c-3.9,0-6.7,2.2-7.6,6.7L262.7,95.2z M386.1,92.9c-0.2,0.9-0.4,2-0.4,2.8c0,4.1,2.8,6.1,8.4,6.1h21
			c6.9,0,11.7-0.4,14.7-0.9c2.4-0.6,5.6-1.7,9.3-3.3l-7.8,21.4H364c-9.3,0-15.8-2.4-19-7.2c-2.2-3-3.2-6.5-3.2-11
			c0-2.8,0.4-5.8,1.1-8.9l7.6-33.1c2-8.5,5.8-15.2,11-20.1c5.2-4.6,12.8-7.1,22.5-7.1h67.3l-0.9,21.7c-2.4-3.2-8.7-4.6-19.3-4.6
			h-24.9c-6.5,0-10.6,3-11.9,8.9L386.1,92.9z M564.3,92.6c-2.2,9.5-5.6,16.2-10.2,20.3c-4.3,4.1-11.3,6.1-20.8,6.1h-67.8
			c-9.3,0-15.6-2-18.2-6.1c-1.5-2-2.2-5.2-2.2-9.3c0-3.2,0.6-6.7,1.5-11l8-34.6c2.2-9.5,5.6-16.2,9.8-20.3c4.5-4.1,11.7-6.1,21-6.1
			h68c9.1,0,15.4,2,18.2,5.9c1.3,2.2,2,5.2,2,9.1c0,3.2-0.6,6.9-1.3,11.3L564.3,92.6z M489.4,94.8c-0.2,0.9-0.4,1.9-0.4,2.6
			c0,3,1.7,4.5,5,4.5h18c4.5,0,7.1-2.4,8.2-7.1l9.1-39c0.2-1.3,0.4-2.4,0.4-3.3c0-0.9-0.2-1.7-0.6-2.2c-0.7-0.9-2.4-1.5-5-1.5h-18
			c-2.4,0-4.3,0.6-5.4,1.5c-1.1,0.9-1.9,2.8-2.2,5.6L489.4,94.8z M586,40.6c-3,0-5.5-1-7.5-3.1c-2.1-2.1-3.1-4.6-3.1-7.5
			c0-2.9,1-5.4,3.1-7.4c2.1-2.1,4.6-3.1,7.5-3.1c2.9,0,5.4,1,7.4,3.1c2,2.1,3.1,4.5,3.1,7.4c0,2.9-1,5.4-3.1,7.5
			C591.3,39.6,588.8,40.6,586,40.6z M577.3,30.1c0,2.4,0.8,4.4,2.5,6.1c1.7,1.7,3.8,2.5,6.3,2.5c2.1,0,4.1-0.8,5.8-2.4
			c1.7-1.6,2.6-3.7,2.6-6.2c0-2.4-0.8-4.4-2.5-6c-1.7-1.7-3.7-2.5-6-2.5c-2.4,0-4.4,0.8-6.1,2.5C578.1,25.7,577.3,27.7,577.3,30.1z
			 M581.8,36V24h4.4c3,0,4.5,1.2,4.5,3.5c0,2-1.1,3.1-3.2,3.3l3.3,5.2h-2.3l-3-5.1h-1.8V36H581.8z M583.7,25.7v3.6h2.5
			c1.6,0,2.5-0.6,2.5-1.8c0-0.6-0.2-1-0.6-1.3c-0.4-0.3-1.1-0.5-2-0.5H583.7z"/>
	</g>
	<path fill="#043673" d="M291.9,182.1h-18.2c0.3-0.5,0.5-1,0.6-1.5c0.1-0.5,0.3-1.1,0.5-1.8l3.8-16.4c0.2-0.7,0.3-1.3,0.4-1.8
		c0.1-0.4,0.1-0.7,0.1-1c0-0.2,0-0.3,0-0.5h18.2l-0.3,2.8c-0.8-0.3-2-0.4-3.9-0.4h-9l-1.8,7.9h8c1.8,0,3.3-0.1,4.2-0.4l-0.7,3.2
		c-0.9-0.3-2.2-0.4-4-0.4h-8l-1.8,8h8.9c2,0,3.3-0.1,4.1-0.4L291.9,182.1z M314.4,182.1h-18.6c0.3-0.5,0.5-1,0.6-1.5
		c0.2-0.5,0.3-1.1,0.5-1.9l3.8-16.4c0.2-0.7,0.3-1.3,0.4-1.8c0-0.3,0.1-0.6,0.1-1c0-0.2,0-0.4,0-0.6h6c-0.3,0.5-0.5,1-0.7,1.5
		c-0.1,0.5-0.3,1.1-0.5,1.9l-4,17.4h9.5c1.8,0,3.2-0.1,4-0.4L314.4,182.1z M336.3,182.1h-18.2c0.3-0.5,0.5-1,0.6-1.5
		c0.1-0.5,0.3-1.1,0.5-1.8l3.8-16.4c0.2-0.7,0.3-1.3,0.4-1.8c0.1-0.4,0.1-0.7,0.1-1c0-0.2,0-0.3,0-0.5h18.2l-0.3,2.8
		c-0.8-0.3-2-0.4-3.9-0.4h-9l-1.8,7.9h8c1.8,0,3.3-0.1,4.2-0.4l-0.7,3.2c-0.9-0.3-2.2-0.4-4-0.4h-8l-1.8,8h8.9c2,0,3.3-0.1,4.1-0.4
		L336.3,182.1z M353,182.1h-5.3l-3-19.2c-0.3-1.6-0.6-2.9-1-3.9h6.6l-0.2,0.7c-0.1,0.3-0.1,0.5-0.1,0.9c0,0.3,0.1,0.9,0.2,1.7
		l2.4,16.4l9.7-16.4c0.7-1,1.1-1.9,1.3-2.6l0.1-0.7h3.7c-0.9,0.9-1.6,1.9-2.3,3L353,182.1z M382.6,182.1l0.1-0.5c0-0.2,0-0.3,0-0.5
		c0-0.3,0-0.6-0.1-0.9c0-0.5-0.1-1.2-0.3-1.8l-0.7-3h-11.3l-2.5,3.7c-0.4,0.6-0.8,1.2-1,1.7c-0.3,0.5-0.4,1-0.5,1.4h-3.7
		c0.5-0.5,0.9-1,1.4-1.5c0.4-0.5,0.9-1.2,1.4-2l12.5-18.2c0-0.1-0.1-0.4-0.3-0.8c-0.2-0.4-0.3-0.6-0.4-0.7h6.1l4.5,18.9
		c0.3,1.2,0.5,2.1,0.7,2.7c0.2,0.6,0.4,1.1,0.7,1.6H382.6z M378.8,163l-6.8,9.9h9.1L378.8,163z M407.6,161.4l-4,17.4
		c-0.1,0.7-0.3,1.3-0.3,1.8c0,0.3-0.1,0.6-0.1,0.9c0,0.2,0,0.4,0,0.7h-6c0.3-0.5,0.5-1,0.7-1.5c0.2-0.5,0.4-1.1,0.5-1.9l4-17.4H399
		c-0.7,0-1.4,0-2.1,0.1c-0.8,0.1-1.4,0.2-1.9,0.4l1.1-2.9h19.1l-0.2,2.9c-0.5-0.2-1-0.3-1.6-0.4c-0.7-0.1-1.4-0.1-2.2-0.1H407.6z
		 M418.1,182.1c-1.6,0-2.6-0.4-3.3-1.2c-0.4-0.5-0.5-1.1-0.5-1.9c0-0.5,0.1-0.9,0.2-1.5l3.2-14c0.3-1.5,0.9-2.6,1.9-3.4
		c0.9-0.8,2.2-1.2,3.8-1.2h12.4c1.6,0,2.8,0.4,3.3,1.1c0.3,0.5,0.5,1.1,0.5,1.8c0,0.5-0.1,1-0.2,1.6l-3.2,14c-0.4,1.5-1,2.6-1.9,3.4
		c-0.9,0.8-2.2,1.2-3.8,1.2H418.1z M434.4,163.1c0.1-0.3,0.1-0.6,0.1-0.8c0-0.2,0-0.4-0.1-0.5c-0.1-0.2-0.5-0.3-1-0.3h-8.6
		c-0.5,0-0.9,0.1-1.2,0.3c-0.3,0.3-0.5,0.7-0.6,1.3l-3.4,15c-0.1,0.3-0.1,0.5-0.1,0.8c0,0.2,0,0.4,0.1,0.5c0.1,0.3,0.5,0.4,1.1,0.4
		h8.5c0.6,0,1-0.1,1.2-0.3c0.2-0.2,0.4-0.7,0.6-1.3L434.4,163.1z M456.6,182.1l-2-10.4h-6.9l-1.6,7c-0.1,0.7-0.3,1.3-0.4,1.8
		c0,0.4,0,0.7,0,1c0,0.1,0,0.3,0,0.5h-5.9c0.3-0.5,0.4-1,0.6-1.5c0.1-0.5,0.3-1.1,0.5-1.8l3.8-16.4c0.2-0.7,0.3-1.3,0.4-1.8
		c0-0.4,0.1-0.7,0.1-1c0-0.2,0-0.3,0-0.5h17c1.7,0,2.9,0.3,3.4,1c0.4,0.4,0.5,1,0.5,1.8c0,0.5-0.1,1-0.2,1.7l-0.9,4.2
		c-0.3,1.5-0.9,2.5-1.6,3.2c-0.8,0.7-1.8,1-3.2,1c0.4,2.1,0.8,3.8,1,5.1c0.3,1.3,0.5,2.2,0.6,2.8c0.1,0.5,0.3,1,0.4,1.3
		c0.1,0.3,0.3,0.7,0.6,1.1H456.6z M460.8,163.2c0.1-0.4,0.1-0.7,0.1-0.9c0-0.2,0-0.4-0.1-0.5c-0.1-0.3-0.5-0.4-1-0.4h-9.8l-1.8,7.9
		h9.8c0.5,0,0.9-0.1,1.2-0.4c0.2-0.3,0.4-0.7,0.6-1.4L460.8,163.2z M479.9,182.1c0.3-0.5,0.5-1,0.6-1.5c0.1-0.5,0.3-1.1,0.5-1.9
		l3.8-16.4c0.2-0.7,0.3-1.3,0.4-1.8c0-0.3,0.1-0.6,0.1-1c0-0.2,0-0.4,0-0.6h17c1.7,0,2.9,0.3,3.4,1c0.4,0.4,0.5,1,0.5,1.8
		c0,0.5-0.1,1-0.2,1.7l-0.8,3.5c-0.3,1.3-0.8,2.1-1.5,2.6c-0.7,0.5-1.8,0.7-3.4,0.7c1.6,0,2.6,0.3,3.1,0.8c0.3,0.3,0.4,0.7,0.4,1.3
		c0,0.4-0.1,0.8-0.2,1.3l-0.9,4c-0.4,1.6-1,2.8-2,3.5c-0.9,0.7-2.2,1-3.9,1H479.9z M498.6,173.2c0.1-0.4,0.1-0.8,0.1-1
		c0-0.2,0-0.3-0.1-0.4c-0.1-0.2-0.5-0.3-1-0.3h-9.7l-1.9,8.3h9.7c0.6,0,0.9-0.1,1.2-0.4c0.2-0.3,0.4-0.7,0.6-1.4L498.6,173.2z
		 M500.9,163.2c0.1-0.4,0.1-0.8,0.1-1c0-0.2,0-0.3-0.1-0.4c-0.1-0.2-0.5-0.3-1-0.3h-9.7l-1.8,7.7h9.7c0.5,0,0.9-0.1,1.2-0.4
		c0.3-0.3,0.5-0.7,0.6-1.3L500.9,163.2z M528.8,177.9c-0.7,2.8-2.3,4.2-5,4.2H511c-2.4,0-3.7-0.9-3.7-2.8c0-0.4,0-0.9,0.2-1.4
		l3.5-15.6c0.2-0.7,0.3-1.3,0.4-1.8c0-0.4,0.1-0.7,0.1-1c0-0.2,0-0.3,0-0.5h5.9c-0.2,0.5-0.5,1-0.6,1.5c-0.1,0.5-0.3,1.1-0.5,1.8
		l-3.6,15.9c-0.1,0.3-0.1,0.5-0.1,0.7c0,0.2,0,0.3,0.1,0.4c0.1,0.2,0.4,0.3,0.9,0.3h11c0.5,0,0.9-0.1,1.1-0.3
		c0.2-0.2,0.4-0.6,0.5-1.1l3.6-15.8c0.3-1.2,0.4-2.4,0.4-3.5h3.3c-0.4,0.7-0.6,1.3-0.8,1.9c-0.3,0.6-0.4,1.3-0.6,2.1L528.8,177.9z
		 M550.5,182.1h-13c-1.7,0-2.8-0.4-3.4-1c-0.4-0.4-0.6-1-0.6-1.8c0-0.5,0.1-1,0.2-1.7l3.2-14c0.4-1.7,1.1-2.9,2-3.6
		c0.9-0.7,2.2-1,3.9-1h12.8l-0.3,2.9c-0.5-0.2-1-0.4-1.7-0.4c-0.7,0-1.6-0.1-2.8-0.1H544c-0.5,0-0.9,0.1-1.2,0.3
		c-0.3,0.3-0.5,0.7-0.6,1.3l-3.4,15c-0.1,0.3-0.1,0.5-0.1,0.8c0,0.2,0,0.4,0.1,0.5c0.1,0.3,0.5,0.4,1.1,0.4h6.8c1.1,0,2.1,0,2.8-0.1
		c0.7,0,1.3-0.2,2-0.4L550.5,182.1z M570.9,182.1l-4.1-11.9l-5.2,4.4l-1,4.1c-0.1,0.7-0.3,1.3-0.3,1.8c-0.1,0.3-0.1,0.7-0.1,0.9
		c0,0.2,0,0.4,0,0.6h-5.9c0.3-0.5,0.4-1,0.6-1.5c0.1-0.5,0.3-1.1,0.5-1.8l3.8-16.4c0.2-0.7,0.3-1.3,0.4-1.8c0.1-0.4,0.1-0.7,0.1-1
		c0-0.2,0-0.3,0-0.5h5.9c-0.2,0.5-0.5,1-0.6,1.5c-0.1,0.5-0.3,1.1-0.5,1.8l-2,8.7l12.2-9.9c1-0.8,1.7-1.5,2.1-2.2h4.6
		c-0.9,0.6-1.6,1.1-2.2,1.5c-0.6,0.4-1.2,0.8-1.6,1.2l-6.1,5.1l4.2,11.4c0.1,0.4,0.4,1.1,0.9,2.1c0.4,1,0.8,1.6,0.9,1.9H570.9z
		 M597.7,182.1h-18.2c0.3-0.5,0.5-1,0.6-1.5c0.1-0.5,0.3-1.1,0.5-1.8l3.8-16.4c0.2-0.7,0.3-1.3,0.4-1.8c0.1-0.4,0.1-0.7,0.1-1
		c0-0.2,0-0.3,0-0.5H603l-0.3,2.8c-0.8-0.3-2-0.4-3.9-0.4h-9l-1.8,7.9h8c1.8,0,3.3-0.1,4.2-0.4l-0.7,3.2c-0.9-0.3-2.2-0.4-4-0.4h-8
		l-1.8,8h8.9c2,0,3.3-0.1,4.1-0.4L597.7,182.1z M617.7,161.4l-4,17.4c-0.1,0.7-0.3,1.3-0.3,1.8c0,0.3-0.1,0.6-0.1,0.9
		c0,0.2,0,0.4,0,0.7h-6c0.3-0.5,0.5-1,0.7-1.5c0.2-0.5,0.4-1.1,0.5-1.9l4-17.4H609c-0.7,0-1.4,0-2.1,0.1c-0.8,0.1-1.4,0.2-1.9,0.4
		l1.1-2.9h19.1l-0.2,2.9c-0.5-0.2-1-0.3-1.6-0.4c-0.7-0.1-1.4-0.1-2.2-0.1H617.7z M624,182.1l0.2-2.8c0.7,0.3,2.1,0.4,3.9,0.4h9.7
		c0.5,0,0.9-0.1,1.2-0.4c0.2-0.2,0.4-0.7,0.6-1.3l0.9-3.8c0.1-0.3,0.1-0.6,0.1-0.8c0-0.3,0-0.4-0.1-0.5c-0.1-0.2-0.5-0.3-1.1-0.3h-9
		c-1.7,0-2.8-0.4-3.4-1c-0.4-0.4-0.5-1-0.5-1.8c0-0.5,0-1.1,0.2-1.7l1-4.5c0.4-1.7,1-2.9,2-3.6c0.9-0.7,2.2-1,3.9-1h14.7l-0.2,2.8
		c-0.8-0.3-2.1-0.4-3.9-0.4h-9.5c-0.5,0-0.9,0.1-1.2,0.3c-0.2,0.2-0.4,0.7-0.6,1.3l-0.7,3c-0.1,0.4-0.1,0.7-0.1,0.9
		c0,0.2,0,0.3,0.1,0.4c0.1,0.2,0.5,0.3,1,0.3h9c1.7,0,2.9,0.3,3.5,1c0.3,0.4,0.5,1,0.5,1.8c0,0.5-0.1,1.1-0.2,1.8l-1.2,5.2
		c-0.4,1.7-1,2.9-1.9,3.5c-0.9,0.7-2.2,1-3.9,1H624z M666,173.2c-0.6-0.7-0.8-1.5-0.8-2.4c0-0.3,0.1-0.7,0.2-1.1
		c0.3-1.4,1.1-2.5,2.3-3.5c1.1-1,2.4-1.5,3.8-1.5c1.4,0,2.4,0.5,3.1,1.5c0.5,0.7,0.8,1.5,0.8,2.4c0,0.4,0,0.7-0.1,1.1
		c-0.3,1.4-1.1,2.5-2.2,3.5c-1.2,1-2.4,1.5-3.8,1.5C667.8,174.6,666.8,174.1,666,173.2z M710.2,182.1H692c0.3-0.5,0.5-1,0.6-1.5
		c0.1-0.5,0.3-1.1,0.5-1.8l3.8-16.4c0.2-0.7,0.3-1.3,0.4-1.8c0.1-0.4,0.1-0.7,0.1-1c0-0.2,0-0.3,0-0.5h18.2l-0.3,2.8
		c-0.8-0.3-2-0.4-3.9-0.4h-9l-1.8,7.9h8c1.8,0,3.3-0.1,4.2-0.4l-0.7,3.2c-0.9-0.3-2.2-0.4-4-0.4h-8l-1.8,8h8.9c2,0,3.3-0.1,4.1-0.4
		L710.2,182.1z M732.8,182.1h-18.6c0.3-0.5,0.5-1,0.6-1.5c0.2-0.5,0.3-1.1,0.5-1.9l3.8-16.4c0.2-0.7,0.3-1.3,0.4-1.8
		c0-0.3,0.1-0.6,0.1-1c0-0.2,0-0.4,0-0.6h6c-0.3,0.5-0.5,1-0.7,1.5c-0.1,0.5-0.3,1.1-0.5,1.9l-4,17.4h9.5c1.8,0,3.2-0.1,4-0.4
		L732.8,182.1z M754.6,182.1h-18.2c0.3-0.5,0.5-1,0.6-1.5c0.1-0.5,0.3-1.1,0.5-1.8l3.8-16.4c0.2-0.7,0.3-1.3,0.4-1.8
		c0.1-0.4,0.1-0.7,0.1-1c0-0.2,0-0.3,0-0.5h18.2l-0.3,2.8c-0.8-0.3-2-0.4-3.9-0.4h-9l-1.8,7.9h8c1.8,0,3.3-0.1,4.2-0.4l-0.7,3.2
		c-0.9-0.3-2.2-0.4-4.1-0.4h-8l-1.8,8h8.9c2,0,3.3-0.1,4.1-0.4L754.6,182.1z M771.3,182.1h-5.3l-3-19.2c-0.3-1.6-0.6-2.9-1-3.9h6.6
		l-0.2,0.7c-0.1,0.3-0.1,0.5-0.1,0.9c0,0.3,0.1,0.9,0.2,1.7l2.4,16.4l9.7-16.4c0.7-1,1.1-1.9,1.3-2.6l0.1-0.7h3.7
		c-0.9,0.9-1.6,1.9-2.3,3L771.3,182.1z M801,182.1l0.1-0.5c0-0.2,0-0.3,0-0.5c0-0.3,0-0.6-0.1-0.9c0-0.5-0.1-1.2-0.3-1.8l-0.7-3
		h-11.3l-2.5,3.7c-0.4,0.6-0.8,1.2-1,1.7c-0.3,0.5-0.4,1-0.5,1.4H781c0.5-0.5,0.9-1,1.4-1.5c0.4-0.5,0.9-1.2,1.4-2l12.5-18.2
		c0-0.1-0.1-0.4-0.3-0.8c-0.2-0.4-0.3-0.6-0.4-0.7h6.1l4.5,18.9c0.3,1.2,0.5,2.1,0.7,2.7c0.2,0.6,0.4,1.1,0.7,1.6H801z M797.1,163
		l-6.8,9.9h9.1L797.1,163z M826,161.4l-4,17.4c-0.1,0.7-0.3,1.3-0.3,1.8c0,0.3-0.1,0.6-0.1,0.9c0,0.2,0,0.4,0,0.7h-6
		c0.3-0.5,0.5-1,0.7-1.5c0.2-0.5,0.4-1.1,0.5-1.9l4-17.4h-3.5c-0.7,0-1.4,0-2.1,0.1c-0.8,0.1-1.4,0.2-1.9,0.4l1.1-2.9h19.1l-0.2,2.9
		c-0.5-0.2-1-0.3-1.6-0.4c-0.7-0.1-1.4-0.1-2.2-0.1H826z M836.4,182.1c-1.6,0-2.6-0.4-3.3-1.2c-0.4-0.5-0.5-1.1-0.5-1.9
		c0-0.5,0.1-0.9,0.2-1.5l3.2-14c0.3-1.5,0.9-2.6,1.9-3.4s2.2-1.2,3.8-1.2h12.4c1.6,0,2.8,0.4,3.3,1.1c0.3,0.5,0.5,1.1,0.5,1.8
		c0,0.5-0.1,1-0.2,1.6l-3.2,14c-0.4,1.5-1,2.6-1.9,3.4c-0.9,0.8-2.2,1.2-3.8,1.2H836.4z M852.7,163.1c0.1-0.3,0.1-0.6,0.1-0.8
		c0-0.2,0-0.4-0.1-0.5c-0.1-0.2-0.5-0.3-1-0.3h-8.6c-0.5,0-0.9,0.1-1.2,0.3c-0.3,0.3-0.5,0.7-0.6,1.3l-3.4,15
		c-0.1,0.3-0.1,0.5-0.1,0.8c0,0.2,0,0.4,0.1,0.5c0.1,0.3,0.5,0.4,1.1,0.4h8.5c0.6,0,1-0.1,1.2-0.3c0.2-0.2,0.4-0.7,0.6-1.3
		L852.7,163.1z M874.9,182.1l-2-10.4H866l-1.6,7c-0.1,0.7-0.3,1.3-0.4,1.8c0,0.4,0,0.7,0,1c0,0.1,0,0.3,0,0.5h-5.9
		c0.3-0.5,0.4-1,0.6-1.5c0.1-0.5,0.3-1.1,0.5-1.8l3.8-16.4c0.2-0.7,0.3-1.3,0.4-1.8c0-0.4,0.1-0.7,0.1-1c0-0.2,0-0.3,0-0.5h17
		c1.7,0,2.9,0.3,3.4,1c0.4,0.4,0.5,1,0.5,1.8c0,0.5-0.1,1-0.2,1.7l-0.9,4.2c-0.3,1.5-0.9,2.5-1.6,3.2s-1.8,1-3.2,1
		c0.4,2.1,0.8,3.8,1,5.1c0.3,1.3,0.5,2.2,0.6,2.8c0.1,0.5,0.3,1,0.4,1.3c0.1,0.3,0.3,0.7,0.6,1.1H874.9z M879.1,163.2
		c0.1-0.4,0.1-0.7,0.1-0.9c0-0.2,0-0.4-0.1-0.5c-0.1-0.3-0.5-0.4-1-0.4h-9.8l-1.8,7.9h9.8c0.5,0,0.9-0.1,1.2-0.4
		c0.2-0.3,0.4-0.7,0.6-1.4L879.1,163.2z M898.2,182.1c0.3-0.5,0.5-1,0.6-1.5c0.1-0.5,0.3-1.1,0.5-1.9l3.8-16.4
		c0.2-0.7,0.3-1.3,0.4-1.8c0-0.3,0.1-0.6,0.1-1c0-0.2,0-0.4,0-0.6h17c1.7,0,2.9,0.3,3.4,1c0.4,0.4,0.5,1,0.5,1.8
		c0,0.5-0.1,1-0.2,1.7l-0.8,3.5c-0.3,1.3-0.8,2.1-1.5,2.6c-0.7,0.5-1.8,0.7-3.4,0.7c1.6,0,2.6,0.3,3.1,0.8c0.3,0.3,0.4,0.7,0.4,1.3
		c0,0.4-0.1,0.8-0.2,1.3l-0.9,4c-0.4,1.6-1,2.8-2,3.5c-0.9,0.7-2.2,1-3.9,1H898.2z M916.9,173.2c0.1-0.4,0.1-0.8,0.1-1
		c0-0.2,0-0.3-0.1-0.4c-0.1-0.2-0.5-0.3-1-0.3h-9.7l-1.9,8.3h9.7c0.6,0,0.9-0.1,1.2-0.4c0.2-0.3,0.4-0.7,0.6-1.4L916.9,173.2z
		 M919.2,163.2c0.1-0.4,0.1-0.8,0.1-1c0-0.2,0-0.3-0.1-0.4c-0.1-0.2-0.5-0.3-1-0.3h-9.7l-1.8,7.7h9.7c0.5,0,0.9-0.1,1.2-0.4
		c0.3-0.3,0.5-0.7,0.6-1.3L919.2,163.2z M929.3,182.1c-1.6,0-2.6-0.4-3.3-1.2c-0.4-0.5-0.5-1.1-0.5-1.9c0-0.5,0.1-0.9,0.2-1.5
		l3.2-14c0.3-1.5,0.9-2.6,1.9-3.4c0.9-0.8,2.2-1.2,3.8-1.2h12.4c1.6,0,2.8,0.4,3.3,1.1c0.3,0.5,0.5,1.1,0.5,1.8c0,0.5-0.1,1-0.2,1.6
		l-3.2,14c-0.4,1.5-1,2.6-1.9,3.4c-0.9,0.8-2.2,1.2-3.8,1.2H929.3z M945.6,163.1c0.1-0.3,0.1-0.6,0.1-0.8c0-0.2,0-0.4-0.1-0.5
		c-0.1-0.2-0.5-0.3-1-0.3H936c-0.5,0-0.9,0.1-1.2,0.3c-0.3,0.3-0.5,0.7-0.6,1.3l-3.4,15c-0.1,0.3-0.1,0.5-0.1,0.8
		c0,0.2,0,0.4,0.1,0.5c0.1,0.3,0.5,0.4,1.1,0.4h8.5c0.6,0,1-0.1,1.2-0.3c0.2-0.2,0.4-0.7,0.6-1.3L945.6,163.1z M969.5,182.1h-18.6
		c0.3-0.5,0.5-1,0.6-1.5c0.2-0.5,0.3-1.1,0.5-1.9l3.8-16.4c0.2-0.7,0.3-1.3,0.4-1.8c0-0.3,0.1-0.6,0.1-1c0-0.2,0-0.4,0-0.6h6
		c-0.3,0.5-0.5,1-0.7,1.5c-0.1,0.5-0.3,1.1-0.5,1.9l-4,17.4h9.5c1.8,0,3.2-0.1,4-0.4L969.5,182.1z M989.3,161.4l-4,17.4
		c-0.1,0.7-0.3,1.3-0.3,1.8c0,0.3-0.1,0.6-0.1,0.9c0,0.2,0,0.4,0,0.7h-6c0.3-0.5,0.5-1,0.7-1.5c0.2-0.5,0.4-1.1,0.5-1.9l4-17.4h-3.5
		c-0.7,0-1.4,0-2.1,0.1c-0.8,0.1-1.4,0.2-1.9,0.4l1.1-2.9h19.1l-0.2,2.9c-0.5-0.2-1-0.3-1.6-0.4c-0.7-0.1-1.4-0.1-2.2-0.1H989.3z
		 M995.6,182.1l0.2-2.8c0.7,0.3,2.1,0.4,3.9,0.4h9.7c0.5,0,0.9-0.1,1.2-0.4c0.2-0.2,0.4-0.7,0.6-1.3l0.9-3.8
		c0.1-0.3,0.1-0.6,0.1-0.8c0-0.3,0-0.4-0.1-0.5c-0.1-0.2-0.5-0.3-1.1-0.3h-9c-1.7,0-2.8-0.4-3.4-1c-0.4-0.4-0.5-1-0.5-1.8
		c0-0.5,0-1.1,0.2-1.7l1-4.5c0.4-1.7,1-2.9,2-3.6c0.9-0.7,2.2-1,3.9-1h14.7l-0.2,2.8c-0.8-0.3-2.1-0.4-3.9-0.4h-9.5
		c-0.5,0-0.9,0.1-1.2,0.3c-0.2,0.2-0.4,0.7-0.6,1.3l-0.7,3c-0.1,0.4-0.1,0.7-0.1,0.9c0,0.2,0,0.3,0.1,0.4c0.1,0.2,0.5,0.3,1,0.3h9
		c1.7,0,2.9,0.3,3.5,1c0.3,0.4,0.5,1,0.5,1.8c0,0.5-0.1,1.1-0.2,1.8l-1.2,5.2c-0.4,1.7-1,2.9-1.9,3.5c-0.9,0.7-2.2,1-3.9,1H995.6z"
		/>
</g>
</svg>
